<svg width="32" height="32" viewBox="0 0 32 32" fill="none" xmlns="http://www.w3.org/2000/svg">
<path d="M24.9438 1.21303C23.3263 -0.193887 20.952 -0.389208 19.1117 0.691161C18.6539 0.959727 18.248 1.30764 17.9092 1.71049C17.0211 2.76034 16.7281 4.10928 16.7159 5.45516C16.7037 6.85903 16.78 8.28732 15.9438 9.49281C14.427 11.681 12.3334 11.562 9.95294 11.7268C7.60909 11.8885 5.7749 13.9425 5.7749 16.3016C5.7749 18.8743 7.85934 20.9618 10.4351 20.9618C12.0374 20.9618 13.5572 20.1134 14.3995 18.7492C15.5471 16.8936 14.4514 14.5803 15.5013 12.7492C16.4779 11.0462 18.306 10.1429 20.2317 10.0971C22.7221 10.0391 25.1819 9.32191 26.2165 6.85903C27.0405 4.89361 26.5613 2.6169 24.9438 1.20998" fill="#73BC44"/>
<path d="M15.193 4.71102C15.193 7.31123 13.0842 9.42009 10.484 9.42009C7.88376 9.42009 5.7749 7.31123 5.7749 4.71102C5.7749 2.11081 7.88376 0.00195312 10.484 0.00195312C13.0842 0.00195312 15.193 2.11081 15.193 4.71102Z" fill="#3897B6"/>
<path d="M26.6924 16.6095C26.6924 19.2097 24.5836 21.3185 21.9834 21.3185C19.3831 21.3185 17.2743 19.2097 17.2743 16.6095C17.2743 14.0092 19.3831 11.9004 21.9834 11.9004C24.5836 11.9004 26.6924 14.0092 26.6924 16.6095Z" fill="#3897B6"/>
<path d="M15.193 27.2911C15.193 29.8913 13.0842 32.0002 10.484 32.0002C7.88376 32.0002 5.7749 29.8913 5.7749 27.2911C5.7749 24.6909 7.88376 22.582 10.484 22.582C13.0842 22.582 15.193 24.6909 15.193 27.2911Z" fill="#73BC44"/>
</svg>
