<svg width="168" height="46" viewBox="0 0 168 46" fill="none" xmlns="http://www.w3.org/2000/svg">
<path d="M168 18.4712V20.1432H162.916V31.2324C162.916 34.2009 164.52 34.3374 168 33.9962V35.5316C163.394 36.2141 161.176 35.0198 161.176 31.2324V20.1432H157.423V18.4712H161.176V14.2061L162.916 13.6943V18.4712H168Z" fill="black"/>
<path d="M156.088 11.2722V12.91C152.71 12.637 151.004 14.1724 151.004 17.5504V18.4717H156.088V20.1436H151.004V35.532H149.264V20.1436H146.33V18.4717H149.264V17.5504C149.264 13.2853 151.687 10.9651 156.088 11.2722Z" fill="black"/>
<path d="M140.56 12.9787C140.492 11.2727 143.358 11.2727 143.29 12.9787C143.358 14.753 140.492 14.753 140.56 12.9787ZM142.778 35.5326H141.072V18.4722H142.778V35.5326Z" fill="black"/>
<path d="M129.626 18.0963C133.686 18.0963 136.245 20.7918 136.245 24.9204V35.532H134.505V24.9204C134.505 21.7472 132.663 19.7341 129.489 19.7341C125.975 19.7341 123.518 22.1225 123.518 26.5241V35.532H121.812V11.6475H123.518V21.7131C124.747 19.2905 126.794 18.0963 129.626 18.0963Z" fill="black"/>
<path d="M107.511 22.9418C107.511 24.6137 109.115 25.5009 111.162 26.0127C114.131 26.661 117.85 27.4117 117.85 31.0626C117.85 33.8946 115.393 35.9077 111.742 35.9077C108.467 35.9077 106.112 34.4064 105.259 32.1203L106.727 31.2673C107.375 33.1439 109.183 34.2699 111.742 34.2699C114.301 34.2699 116.144 33.1098 116.144 31.0626C116.144 29.3907 114.54 28.4012 112.493 27.9576C109.524 27.241 105.805 26.5245 105.805 22.9418C105.805 21.577 106.351 20.4169 107.409 19.4956C108.501 18.5744 109.9 18.0967 111.606 18.0967C114.336 18.0967 116.451 19.4274 117.406 21.5088L115.973 22.3277C115.291 20.6557 113.551 19.7345 111.606 19.7345C109.286 19.7345 107.511 20.9969 107.511 22.9418Z" fill="black"/>
<path d="M102.367 18.4712V22.7022H98.5114V29.7993C98.5114 31.6419 99.8422 31.676 102.367 31.5395V35.5316C96.3277 36.214 94.1099 34.4739 94.1099 29.7993V22.7022H91.1414V18.4712H94.1099V15.025L98.5114 13.6943V18.4712H102.367Z" fill="black"/>
<path d="M81.4745 23.317C81.4745 24.2382 82.8393 24.7501 84.5795 25.1936C87.0703 25.7054 90.3118 26.8997 90.2777 30.5506C90.2777 32.2907 89.6294 33.6556 88.2987 34.611C87.0021 35.5322 85.3643 36.0099 83.4194 36.0099C79.905 36.0099 77.5165 34.6451 76.254 31.9495L80.0756 29.7999C80.5874 31.2671 81.6792 32.0178 83.4194 32.0178C84.9889 32.0178 85.7737 31.5401 85.7737 30.5506C85.7737 29.6293 84.4089 29.1175 82.6687 28.6739C80.1438 28.0256 76.9706 26.9679 76.9706 23.4193C76.9706 21.7474 77.5847 20.4167 78.8131 19.4613C80.0756 18.4718 81.611 17.9941 83.4535 17.9941C86.2173 17.9941 88.6057 19.2907 89.9365 21.6109L86.1832 23.6582C85.6372 22.4981 84.716 21.918 83.4535 21.918C82.3275 21.918 81.4745 22.464 81.4745 23.317Z" fill="black"/>
<path d="M70.1867 18.4711V21.4055C71.0056 19.2217 73.0529 18.1299 75.3731 18.1299V23.0433C74.0424 22.8727 72.814 23.1456 71.7563 23.8622C70.6985 24.5787 70.1867 25.7388 70.1867 27.3766V35.5315H65.7852V18.4711H70.1867Z" fill="black"/>
<path d="M59.5386 16.4242C58.0714 16.4242 56.843 15.1959 56.843 13.7287C56.843 12.2615 58.0714 10.999 59.5386 10.999C61.0399 10.999 62.2682 12.2615 62.2682 13.7287C62.2682 15.1959 61.0399 16.4242 59.5386 16.4242ZM61.7564 35.5319H57.3548V18.4715H61.7564V35.5319Z" fill="black"/>
<path d="M54.1286 11.6475V16.1514H44.5748V21.8155H53.8556V26.3194H44.5748V35.532H39.8661V11.6475H54.1286Z" fill="black"/>
<path d="M27.2142 1.72215C24.9178 -0.275263 21.5469 -0.552561 18.9343 0.981244C18.2843 1.36253 17.7081 1.85647 17.2271 2.42839C15.9663 3.91887 15.5504 5.83396 15.533 7.74472C15.5157 9.73779 15.624 11.7655 14.4368 13.477C12.2834 16.5836 9.31115 16.4146 5.93158 16.6486C2.604 16.8782 0 19.7942 0 23.1434C0 26.796 2.95929 29.7596 6.61616 29.7596C8.89087 29.7596 11.0486 28.5551 12.2444 26.6183C13.8736 23.984 12.3181 20.6997 13.8086 18.1001C15.1951 15.6824 17.7904 14.3999 20.5244 14.3349C24.0599 14.2526 27.5522 13.2343 29.021 9.73779C30.1908 6.94748 29.5106 3.71523 27.2142 1.71782" fill="#73BC44"/>
<path d="M13.371 6.68744C13.371 10.379 10.377 13.3729 6.68548 13.3729C2.99395 13.3729 0 10.379 0 6.68744C0 2.99591 2.99395 0.00195312 6.68548 0.00195312C10.377 0.00195312 13.371 2.99591 13.371 6.68744Z" fill="#3897B6"/>
<path d="M29.6968 23.58C29.6968 27.2715 26.7028 30.2655 23.0113 30.2655C19.3198 30.2655 16.3258 27.2715 16.3258 23.58C16.3258 19.8885 19.3198 16.8945 23.0113 16.8945C26.7028 16.8945 29.6968 19.8885 29.6968 23.58Z" fill="#3897B6"/>
<path d="M13.371 38.7451C13.371 42.4366 10.377 45.4305 6.68548 45.4305C2.99395 45.4305 0 42.4366 0 38.7451C0 35.0535 2.99395 32.0596 6.68548 32.0596C10.377 32.0596 13.371 35.0535 13.371 38.7451Z" fill="#73BC44"/>
</svg>
